<svg width="72" height="32" fill="none" xmlns="http://www.w3.org/2000/svg"><g clip-path="url(#clip0)" filter="url(#filter0_d)"><path d="M23.29 31.12v-2.025a1.188 1.188 0 0 0-.349-.928 1.218 1.218 0 0 0-.936-.355 1.28 1.28 0 0 0-.654.132 1.26 1.26 0 0 0-.494.442 1.213 1.213 0 0 0-1.08-.574 1.093 1.093 0 0 0-.958.48v-.399h-.71v3.227h.717v-1.775a.748.748 0 0 1 .196-.615.765.765 0 0 1 .604-.243c.472 0 .711.304.711.851v1.796h.718v-1.79a.75.75 0 0 1 .197-.613.768.768 0 0 1 .603-.244c.485 0 .718.304.718.851v1.796l.717-.014zm10.62-3.227h-1.168v-.979h-.718v.98h-.65v.64h.664v1.486c0 .75.294 1.195 1.134 1.195.315.001.623-.085.89-.25l-.206-.6c-.19.112-.407.174-.629.182-.342 0-.472-.216-.472-.54v-1.473h1.163l-.007-.64zm6.065-.081a.975.975 0 0 0-.862.473v-.392h-.704v3.227h.711v-1.809c0-.533.233-.83.684-.83.152-.003.303.025.444.08l.219-.675a1.539 1.539 0 0 0-.506-.087l.014.013zm-9.168.338a2.468 2.468 0 0 0-1.333-.338c-.827 0-1.367.392-1.367 1.033 0 .527.396.85 1.128.952l.341.047c.39.054.575.156.575.338 0 .25-.26.392-.745.392a1.754 1.754 0 0 1-1.087-.338l-.342.547c.414.285.91.432 1.415.418.943 0 1.49-.438 1.49-1.053 0-.614-.43-.864-1.142-.965l-.341-.048c-.308-.04-.554-.1-.554-.317 0-.216.232-.378.622-.378.36.004.713.1 1.026.277l.314-.567zm19.043-.338a.975.975 0 0 0-.862.473v-.392h-.704v3.227h.711v-1.809c0-.533.233-.83.684-.83.152-.003.303.025.444.08l.219-.675a1.54 1.54 0 0 0-.506-.087l.014.013zM40.689 29.5a1.613 1.613 0 0 0 .494 1.224 1.652 1.652 0 0 0 1.25.464c.426.021.846-.116 1.175-.385l-.342-.567a1.447 1.447 0 0 1-.854.29 1.054 1.054 0 0 1-.687-.33 1.03 1.03 0 0 1 0-1.405c.179-.192.424-.31.687-.33.309.003.609.105.854.29l.342-.568a1.723 1.723 0 0 0-1.176-.384 1.67 1.67 0 0 0-1.249.463 1.629 1.629 0 0 0-.494 1.224v.014zm6.659 0v-1.607h-.711v.392a1.238 1.238 0 0 0-1.026-.473 1.72 1.72 0 0 0-1.208.494 1.677 1.677 0 0 0 0 2.387c.32.317.755.495 1.208.495a1.253 1.253 0 0 0 1.026-.473v.392h.71V29.5zm-2.646 0a.968.968 0 0 1 .194-.525 1 1 0 0 1 1.51-.089.972.972 0 0 1 .19 1.055.978.978 0 0 1-.361.43.996.996 0 0 1-.542.162.992.992 0 0 1-.724-.302.968.968 0 0 1-.267-.731zm-8.58-1.688a1.72 1.72 0 0 0-1.201.511 1.677 1.677 0 0 0 .034 2.387 1.72 1.72 0 0 0 1.215.478c.492.025.976-.131 1.357-.439l-.342-.52c-.27.214-.604.333-.95.338a.914.914 0 0 1-.651-.2.891.891 0 0 1-.327-.59h2.427v-.27c0-1.013-.635-1.688-1.551-1.688l-.01-.007zm0 .628a.817.817 0 0 1 .76.478c.042.097.065.2.068.305h-1.71a.826.826 0 0 1 .273-.566.847.847 0 0 1 .596-.217h.013zm17.813 1.067v-2.91h-.684v1.688a1.238 1.238 0 0 0-1.026-.473 1.72 1.72 0 0 0-1.208.494 1.677 1.677 0 0 0 0 2.387c.32.317.755.495 1.208.495a1.253 1.253 0 0 0 1.026-.473v.392h.684v-1.6zm1.186 1.144a.344.344 0 0 1 .235.091.31.31 0 0 1 0 .452.343.343 0 0 1-.105.068.326.326 0 0 1-.13.027.345.345 0 0 1-.308-.196.314.314 0 0 1 .178-.418.344.344 0 0 1 .14-.024h-.01zm0 .57a.245.245 0 0 0 .177-.073.248.248 0 0 0 0-.338.253.253 0 0 0-.177-.074.258.258 0 0 0-.181.074.248.248 0 0 0 0 .338.257.257 0 0 0 .191.074h-.01zm.02-.4a.137.137 0 0 1 .089.026.083.083 0 0 1 .03.071.08.08 0 0 1-.023.06.12.12 0 0 1-.072.031l.1.111h-.08l-.092-.11h-.03v.11h-.065v-.297l.143-.003zm-.075.056v.082h.075a.073.073 0 0 0 .041 0 .033.033 0 0 0 0-.03.033.033 0 0 0 0-.031.073.073 0 0 0-.04 0l-.076-.02zm-3.76-1.37a.968.968 0 0 1 .194-.525.987.987 0 0 1 1.019-.367.99.99 0 0 1 .49.278.97.97 0 0 1-.17 1.484.997.997 0 0 1-.542.163.992.992 0 0 1-.724-.302.966.966 0 0 1-.267-.731zm-24.006 0v-1.614h-.711v.392a1.238 1.238 0 0 0-1.025-.473 1.72 1.72 0 0 0-1.209.494 1.677 1.677 0 0 0 0 2.387c.32.317.755.495 1.209.495a1.254 1.254 0 0 0 1.025-.473v.392h.71v-1.6zm-2.646 0a.968.968 0 0 1 .194-.525.987.987 0 0 1 1.019-.367.99.99 0 0 1 .49.278.97.97 0 0 1-.17 1.484.997.997 0 0 1-.542.163.99.99 0 0 1-.729-.3.966.966 0 0 1-.269-.733h.007z" fill="#2F3639"/><path d="M41.339 3.299H30.57V22.41H41.34V3.3z" fill="#FF5F00"/><path d="M31.255 12.855a12.01 12.01 0 0 1 1.235-5.313c.814-1.656 1.999-3.107 3.465-4.244A12.39 12.39 0 0 0 29.664.77a12.44 12.44 0 0 0-6.691 1.153 12.255 12.255 0 0 0-5.053 4.483 12.043 12.043 0 0 0-1.874 6.448c0 2.28.65 4.515 1.874 6.448a12.255 12.255 0 0 0 5.053 4.483 12.44 12.44 0 0 0 6.69 1.153 12.39 12.39 0 0 0 6.292-2.528 12.164 12.164 0 0 1-3.465-4.242 12.009 12.009 0 0 1-1.235-5.313z" fill="#EB001B"/><path d="M55.866 12.856c0 2.28-.65 4.515-1.875 6.448a12.255 12.255 0 0 1-5.053 4.483 12.44 12.44 0 0 1-12.983-1.377 12.183 12.183 0 0 0 3.464-4.244 12.03 12.03 0 0 0 0-10.624 12.184 12.184 0 0 0-3.464-4.244 12.39 12.39 0 0 1 6.291-2.53 12.44 12.44 0 0 1 6.692 1.153 12.255 12.255 0 0 1 5.053 4.483 12.044 12.044 0 0 1 1.875 6.448v.004zM54.69 20.385v-.392h.161v-.08h-.407v.08h.175v.392h.071zm.79 0v-.473h-.123l-.144.338-.143-.338h-.11v.473h.09v-.355l.133.307h.092l.133-.307v.358l.072-.003z" fill="#F79E1B"/></g><defs><filter id="filter0_d" x="-4" y="0" width="80" height="40" filterUnits="userSpaceOnUse" color-interpolation-filters="sRGB"><feFlood flood-opacity="0" result="BackgroundImageFix"/><feColorMatrix in="SourceAlpha" values="0 0 0 0 0 0 0 0 0 0 0 0 0 0 0 0 0 0 127 0"/><feOffset dy="4"/><feGaussianBlur stdDeviation="2"/><feColorMatrix values="0 0 0 0 0 0 0 0 0 0 0 0 0 0 0 0 0 0 0.25 0"/><feBlend in2="BackgroundImageFix" result="effect1_dropShadow"/><feBlend in="SourceGraphic" in2="effect1_dropShadow" result="shape"/></filter><clipPath id="clip0"><path fill="#fff" d="M0 0h72v32H0z"/></clipPath></defs></svg>