<svg width="72" height="32" fill="none" xmlns="http://www.w3.org/2000/svg"><g clip-path="url(#clip0)"><path d="M13.177 8.471c-.846-.952-2.374-1.36-4.33-1.36H3.172a.81.81 0 0 0-.803.677L.006 22.591a.483.483 0 0 0 .482.556H3.99l.88-5.512-.027.172c.063-.39.4-.677.8-.677h1.665c3.27 0 5.832-1.312 6.58-5.108.022-.112.041-.221.058-.328-.095-.05-.095-.05 0 0 .223-1.403-.002-2.358-.77-3.223z" fill="#003087"/><path d="M49.377 15.471h-1.886c-.18 0-.349.089-.45.236l-2.601 3.784-1.103-3.636a.544.544 0 0 0-.521-.384h-1.854a.323.323 0 0 0-.309.427l2.076 6.02-1.953 2.721a.322.322 0 0 0 .267.51h1.884a.548.548 0 0 0 .447-.232l6.271-8.94a.322.322 0 0 0-.268-.506zM36.77 19.078c-.181 1.059-1.032 1.77-2.117 1.77-.545 0-.98-.174-1.26-.5-.278-.325-.382-.788-.294-1.302.168-1.05 1.033-1.783 2.102-1.783.533 0 .965.174 1.25.505.288.332.401.797.32 1.31zm2.615-3.607h-1.876a.326.326 0 0 0-.323.273l-.083.518-.13-.188c-.407-.582-1.313-.777-2.217-.777-2.073 0-3.843 1.551-4.188 3.727-.179 1.086.075 2.123.699 2.847.572.665 1.39.942 2.363.942 1.67 0 2.597-1.06 2.597-1.06l-.084.515a.324.324 0 0 0 .323.373h1.69a.542.542 0 0 0 .537-.454l1.015-6.343a.324.324 0 0 0-.323-.373zm-11.259.045c-.214 1.389-1.288 1.389-2.327 1.389h-.591l.415-2.594a.325.325 0 0 1 .322-.272h.271c.707 0 1.375 0 1.72.398.206.238.268.591.19 1.079zm-.452-3.624h-3.918a.543.543 0 0 0-.538.454l-1.584 9.922a.324.324 0 0 0 .322.373h1.871a.542.542 0 0 0 .538-.454l.428-2.677a.542.542 0 0 1 .537-.454h1.24c2.58 0 4.07-1.233 4.46-3.679.175-1.068.006-1.908-.5-2.497-.558-.646-1.545-.988-2.856-.988z" fill="#002F86"/><path d="M69.54 12.164l-1.608 10.104a.324.324 0 0 0 .323.373h1.617a.542.542 0 0 0 .538-.454l1.585-9.923a.324.324 0 0 0-.322-.372h-1.81a.325.325 0 0 0-.323.272zm-4.826 6.914c-.18 1.059-1.032 1.77-2.117 1.77-.544 0-.98-.174-1.26-.5-.278-.325-.382-.788-.294-1.302.169-1.05 1.034-1.783 2.102-1.783.533 0 .966.174 1.251.505.288.332.4.797.318 1.31zm2.615-3.607h-1.876a.326.326 0 0 0-.323.273l-.082.518-.132-.188c-.406-.582-1.311-.777-2.216-.777-2.072 0-3.843 1.551-4.187 3.727-.18 1.086.075 2.123.698 2.847.573.665 1.39.942 2.363.942 1.67 0 2.597-1.06 2.597-1.06l-.084.515a.324.324 0 0 0 .323.373h1.69a.542.542 0 0 0 .538-.454l1.014-6.343a.324.324 0 0 0-.323-.373zm-11.258.045c-.215 1.389-1.289 1.389-2.328 1.389h-.59l.414-2.594a.325.325 0 0 1 .322-.272h.271c.708 0 1.376 0 1.72.398.206.238.268.591.19 1.079zm-.453-3.624H51.7a.543.543 0 0 0-.538.454l-1.584 9.922a.324.324 0 0 0 .323.373h2.01a.38.38 0 0 0 .376-.317l.45-2.814a.542.542 0 0 1 .538-.454h1.24c2.58 0 4.07-1.233 4.459-3.679.175-1.068.007-1.908-.5-2.497-.557-.646-1.545-.988-2.856-.988z" fill="#009CDE"/><path d="M13.177 8.471c-.846-.952-2.374-1.36-4.33-1.36H3.172a.81.81 0 0 0-.803.677L.006 22.591a.483.483 0 0 0 .482.556H3.99l.88-5.512-.027.172c.063-.39.4-.677.8-.677h1.665c3.27 0 5.832-1.312 6.58-5.108.022-.112.041-.221.058-.328-.095-.05-.095-.05 0 0 .223-1.403-.002-2.358-.77-3.223z" fill="#003087"/><path d="M5.817 11.712a.703.703 0 0 1 .702-.592h4.449a9.41 9.41 0 0 1 1.467.105 6.142 6.142 0 0 1 .897.212c.22.073.426.158.615.257.223-1.404-.002-2.358-.77-3.223-.846-.952-2.374-1.36-4.33-1.36H3.171a.81.81 0 0 0-.802.677L.006 22.59a.483.483 0 0 0 .481.557h3.504l.88-5.513.946-5.922z" fill="#002F86"/><path d="M13.947 11.694a8.889 8.889 0 0 1-.058.329c-.748 3.795-3.31 5.108-6.58 5.108H5.643c-.4 0-.737.287-.799.677l-.853 5.339-.242 1.515c-.04.255.16.487.421.487h2.954c.35 0 .647-.252.702-.593l.028-.148.557-3.485.036-.192a.708.708 0 0 1 .702-.593h.442c2.86 0 5.101-1.148 5.756-4.468.273-1.387.132-2.546-.591-3.36a2.817 2.817 0 0 0-.809-.616" fill="#009CDE"/><path d="M13.164 11.386a5.549 5.549 0 0 0-.728-.16 9.342 9.342 0 0 0-1.468-.106H6.52a.71.71 0 0 0-.701.593l-.946 5.921-.027.173c.062-.39.4-.677.799-.677h1.665c3.271 0 5.832-1.312 6.58-5.108.023-.112.041-.22.059-.328a4.069 4.069 0 0 0-.784-.309z" fill="#012069"/></g><defs><clipPath id="clip0"><path fill="#fff" d="M0 0h72v32H0z"/></clipPath></defs></svg>