<svg width="72" height="32" fill="none" xmlns="http://www.w3.org/2000/svg"><g clip-path="url(#clip0)"><path d="M32.42 24.384h-4.35l2.721-16.616h4.35l-2.72 16.616zM48.19 8.174c-.858-.336-2.22-.707-3.902-.707-4.296 0-7.32 2.262-7.34 5.497-.035 2.386 2.166 3.712 3.813 4.508 1.683.813 2.255 1.344 2.255 2.068-.017 1.114-1.36 1.627-2.612 1.627-1.737 0-2.668-.265-4.082-.884l-.573-.266-.608 3.73c1.02.46 2.9.867 4.851.885 4.565 0 7.536-2.228 7.571-5.675.018-1.891-1.145-3.34-3.651-4.525-1.522-.76-2.453-1.273-2.453-2.05.017-.708.788-1.432 2.505-1.432a7.469 7.469 0 0 1 3.24.636l.394.176.592-3.588zM53.971 18.497c.359-.954 1.737-4.649 1.737-4.649-.018.036.358-.972.573-1.59l.304 1.431s.823 3.977 1.002 4.808h-3.616zm5.37-10.73h-3.365c-1.037 0-1.826.3-2.273 1.38L47.24 24.382h4.565l.913-2.492h5.585c.125.583.519 2.492.519 2.492h4.028L59.34 7.768zM24.437 7.768l-4.26 11.33-.465-2.298c-.788-2.651-3.258-5.532-6.015-6.965L17.6 24.366h4.6l6.838-16.598h-4.6z" fill="#00579F"/><path d="M16.22 7.768H9.223l-.072.335c5.46 1.38 9.076 4.703 10.561 8.698L18.19 9.164c-.25-1.06-1.02-1.361-1.97-1.396z" fill="#FAA61A"/></g><defs><clipPath id="clip0"><path fill="#fff" d="M0 0h72v32H0z"/></clipPath></defs></svg>